<svg xmlns="http://www.w3.org/2000/svg" xmlns:xlink="http://www.w3.org/1999/xlink" width="1928" zoomAndPan="magnify" viewBox="0 0 1446 809.999993" height="1080" preserveAspectRatio="xMidYMid meet" version="1.0"><defs><g/></defs><g fill="#000000" fill-opacity="1"><g transform="translate(81.000002, 344.250003)"><g><path d="M 61.171875 -113.140625 C 100.753906 -113.140625 120.546875 -94.285156 120.546875 -56.578125 C 120.546875 -18.859375 100.753906 0 61.171875 0 L 12.171875 0 L 12.171875 -113.140625 Z M 48.515625 -27.140625 L 60.515625 -27.140625 C 75.753906 -27.140625 83.375 -35.304688 83.375 -51.640625 L 83.375 -61.5 C 83.375 -77.84375 75.753906 -86.015625 60.515625 -86.015625 L 48.515625 -86.015625 Z M 48.515625 -27.140625 "/></g></g></g><g fill="#000000" fill-opacity="1"><g transform="translate(208.941528, 344.250003)"><g><path d="M 54.765625 -88.796875 C 70.003906 -88.796875 81.976562 -84.929688 90.6875 -77.203125 C 99.40625 -69.472656 103.765625 -58.210938 103.765625 -43.421875 C 103.765625 -28.617188 99.40625 -17.351562 90.6875 -9.625 C 81.976562 -1.894531 70.003906 1.96875 54.765625 1.96875 C 39.523438 1.96875 27.570312 -1.863281 18.90625 -9.53125 C 10.25 -17.207031 5.921875 -28.503906 5.921875 -43.421875 C 5.921875 -58.328125 10.25 -69.613281 18.90625 -77.28125 C 27.570312 -84.957031 39.523438 -88.796875 54.765625 -88.796875 Z M 54.765625 -66.609375 C 44.015625 -66.609375 38.640625 -60.410156 38.640625 -48.015625 L 38.640625 -38.640625 C 38.640625 -26.367188 44.015625 -20.234375 54.765625 -20.234375 C 65.617188 -20.234375 71.046875 -26.367188 71.046875 -38.640625 L 71.046875 -48.015625 C 71.046875 -60.410156 65.617188 -66.609375 54.765625 -66.609375 Z M 54.765625 -66.609375 "/></g></g></g><g fill="#000000" fill-opacity="1"><g transform="translate(318.629183, 344.250003)"><g><path d="M 108.875 0 L 70.71875 0 L 54.265625 -27.296875 L 53.609375 -27.296875 L 37 0 L 0.65625 0 L 34.046875 -46.046875 L 3.953125 -86.828125 L 42.421875 -86.828125 L 56.25 -63.8125 L 56.90625 -63.8125 L 70.71875 -86.828125 L 106.890625 -86.828125 L 76.3125 -45.21875 Z M 108.875 0 "/></g></g></g><g fill="#000000" fill-opacity="1"><g transform="translate(428.316861, 344.250003)"><g><path d="M 67.75 -86.828125 L 67.75 -64.625 L 49.328125 -64.625 L 49.328125 -31.578125 C 49.328125 -27.628906 49.984375 -24.75 51.296875 -22.9375 C 52.617188 -21.132812 55.035156 -20.234375 58.546875 -20.234375 L 67.75 -20.234375 L 67.75 -0.984375 C 65.125 -0.109375 61.726562 0.597656 57.5625 1.140625 C 53.394531 1.691406 49.773438 1.96875 46.703125 1.96875 C 37.054688 1.96875 29.628906 0.21875 24.421875 -3.28125 C 19.210938 -6.789062 16.609375 -12.769531 16.609375 -21.21875 L 16.609375 -64.625 L 4.4375 -64.625 L 4.4375 -86.828125 L 17.921875 -86.828125 L 25 -113.140625 L 49.328125 -113.140625 L 49.328125 -86.828125 Z M 67.75 -86.828125 "/></g></g></g><g fill="#000000" fill-opacity="1"><g transform="translate(501.332314, 344.250003)"><g><path d="M 54.765625 -88.796875 C 70.660156 -88.796875 82.800781 -85.066406 91.1875 -77.609375 C 99.570312 -70.160156 103.765625 -58.765625 103.765625 -43.421875 L 103.765625 -37.828125 L 38.640625 -37.828125 C 38.640625 -31.578125 40.035156 -26.859375 42.828125 -23.671875 C 45.628906 -20.492188 50.046875 -18.90625 56.078125 -18.90625 C 61.554688 -18.90625 65.582031 -20.054688 68.15625 -22.359375 C 70.738281 -24.660156 72.03125 -27.734375 72.03125 -31.578125 L 103.765625 -31.578125 C 103.765625 -21.046875 99.765625 -12.820312 91.765625 -6.90625 C 83.765625 -0.988281 72.085938 1.96875 56.734375 1.96875 C 40.617188 1.96875 28.117188 -1.785156 19.234375 -9.296875 C 10.359375 -16.804688 5.921875 -28.179688 5.921875 -43.421875 C 5.921875 -58.328125 10.25 -69.613281 18.90625 -77.28125 C 27.570312 -84.957031 39.523438 -88.796875 54.765625 -88.796875 Z M 56.078125 -67.921875 C 45.773438 -67.921875 40.019531 -63.039062 38.8125 -53.28125 L 70.71875 -53.28125 C 70.71875 -57.78125 69.425781 -61.34375 66.84375 -63.96875 C 64.269531 -66.601562 60.679688 -67.921875 56.078125 -67.921875 Z M 56.078125 -67.921875 "/></g></g></g><g fill="#000000" fill-opacity="1"><g transform="translate(611.019992, 344.250003)"><g><path d="M 62.65625 -88.96875 C 65.175781 -88.96875 67.421875 -88.664062 69.390625 -88.0625 C 71.367188 -87.457031 72.359375 -87.101562 72.359375 -87 L 72.359375 -59.53125 L 61.828125 -59.53125 C 55.035156 -59.53125 50.128906 -57.773438 47.109375 -54.265625 C 44.097656 -50.753906 42.59375 -45.546875 42.59375 -38.640625 L 42.59375 0 L 9.859375 0 L 9.859375 -86.828125 L 36.671875 -86.828125 L 38.8125 -73.671875 C 40.78125 -78.710938 43.898438 -82.519531 48.171875 -85.09375 C 52.453125 -87.675781 57.28125 -88.96875 62.65625 -88.96875 Z M 62.65625 -88.96875 "/></g></g></g><g fill="#000000" fill-opacity="1"><g transform="translate(684.035491, 344.250003)"><g/></g></g><g fill="#000000" fill-opacity="1"><g transform="translate(738.797116, 344.250003)"><g><path d="M 75.640625 -113.140625 C 82.660156 -113.140625 88.910156 -111.519531 94.390625 -108.28125 C 99.878906 -105.050781 104.15625 -100.613281 107.21875 -94.96875 C 110.289062 -89.320312 111.828125 -82.992188 111.828125 -75.984375 L 111.828125 -73.84375 C 111.828125 -66.820312 110.289062 -60.460938 107.21875 -54.765625 C 104.15625 -49.066406 99.878906 -44.597656 94.390625 -41.359375 C 88.910156 -38.128906 82.660156 -36.515625 75.640625 -36.515625 L 48.515625 -36.515625 L 48.515625 0 L 12.171875 0 L 12.171875 -113.140625 Z M 48.515625 -62.984375 L 63.484375 -62.984375 C 67.316406 -62.984375 70.191406 -63.96875 72.109375 -65.9375 C 74.023438 -67.914062 74.984375 -70.601562 74.984375 -74 L 74.984375 -75.3125 C 74.984375 -78.820312 74.023438 -81.535156 72.109375 -83.453125 C 70.191406 -85.378906 67.316406 -86.34375 63.484375 -86.34375 L 48.515625 -86.34375 Z M 48.515625 -62.984375 "/></g></g></g><g fill="#000000" fill-opacity="1"><g transform="translate(857.52947, 344.250003)"><g><path d="M 54.765625 -88.796875 C 70.003906 -88.796875 81.976562 -84.929688 90.6875 -77.203125 C 99.40625 -69.472656 103.765625 -58.210938 103.765625 -43.421875 C 103.765625 -28.617188 99.40625 -17.351562 90.6875 -9.625 C 81.976562 -1.894531 70.003906 1.96875 54.765625 1.96875 C 39.523438 1.96875 27.570312 -1.863281 18.90625 -9.53125 C 10.25 -17.207031 5.921875 -28.503906 5.921875 -43.421875 C 5.921875 -58.328125 10.25 -69.613281 18.90625 -77.28125 C 27.570312 -84.957031 39.523438 -88.796875 54.765625 -88.796875 Z M 54.765625 -66.609375 C 44.015625 -66.609375 38.640625 -60.410156 38.640625 -48.015625 L 38.640625 -38.640625 C 38.640625 -26.367188 44.015625 -20.234375 54.765625 -20.234375 C 65.617188 -20.234375 71.046875 -26.367188 71.046875 -38.640625 L 71.046875 -48.015625 C 71.046875 -60.410156 65.617188 -66.609375 54.765625 -66.609375 Z M 54.765625 -66.609375 "/></g></g></g><g fill="#000000" fill-opacity="1"><g transform="translate(967.217148, 344.250003)"><g><path d="M 69.734375 -88.796875 C 79.816406 -88.796875 87.378906 -86 92.421875 -80.40625 C 97.460938 -74.820312 99.984375 -66.769531 99.984375 -56.25 L 99.984375 0 L 67.265625 0 L 67.265625 -52.296875 C 67.265625 -56.023438 66.300781 -59.007812 64.375 -61.25 C 62.457031 -63.5 59.75 -64.625 56.25 -64.625 C 52.1875 -64.625 48.894531 -63.304688 46.375 -60.671875 C 43.851562 -58.046875 42.59375 -54.816406 42.59375 -50.984375 L 42.59375 0 L 9.859375 0 L 9.859375 -86.828125 L 36.671875 -86.828125 L 38.8125 -73.671875 C 42.207031 -78.273438 46.671875 -81.945312 52.203125 -84.6875 C 57.742188 -87.425781 63.585938 -88.796875 69.734375 -88.796875 Z M 69.734375 -88.796875 "/></g></g></g><g fill="#000000" fill-opacity="1"><g transform="translate(1076.904825, 344.250003)"><g><path d="M 51.140625 -88.796875 C 62.765625 -88.796875 72.601562 -86.519531 80.65625 -81.96875 C 88.71875 -77.425781 92.75 -70.382812 92.75 -60.84375 L 62.328125 -60.84375 C 62.328125 -64.019531 60.898438 -66.269531 58.046875 -67.59375 C 56.078125 -68.6875 53.613281 -69.234375 50.65625 -69.234375 C 42.757812 -69.234375 38.8125 -67.367188 38.8125 -63.640625 C 38.8125 -61.554688 40.179688 -60.078125 42.921875 -59.203125 C 45.660156 -58.328125 50.15625 -57.394531 56.40625 -56.40625 C 64.082031 -55.3125 70.492188 -54.023438 75.640625 -52.546875 C 80.796875 -51.066406 85.289062 -48.429688 89.125 -44.640625 C 92.96875 -40.859375 94.890625 -35.570312 94.890625 -28.78125 C 94.890625 -17.707031 90.75 -9.8125 82.46875 -5.09375 C 74.195312 -0.382812 63.375 1.96875 50 1.96875 C 42.320312 1.96875 35.082031 0.898438 28.28125 -1.234375 C 21.488281 -3.367188 15.953125 -6.679688 11.671875 -11.171875 C 7.398438 -15.671875 5.265625 -21.375 5.265625 -28.28125 L 35.6875 -28.28125 L 35.6875 -27.625 C 35.789062 -23.894531 37.347656 -21.289062 40.359375 -19.8125 C 43.378906 -18.332031 46.59375 -17.59375 50 -17.59375 C 59.09375 -17.59375 63.640625 -19.734375 63.640625 -24.015625 C 63.640625 -26.203125 62.210938 -27.789062 59.359375 -28.78125 C 56.515625 -29.769531 51.859375 -30.8125 45.390625 -31.90625 C 37.609375 -33.21875 31.222656 -34.640625 26.234375 -36.171875 C 21.242188 -37.710938 16.882812 -40.316406 13.15625 -43.984375 C 9.425781 -47.660156 7.5625 -52.789062 7.5625 -59.375 C 7.5625 -70 11.585938 -77.554688 19.640625 -82.046875 C 27.703125 -86.546875 38.203125 -88.796875 51.140625 -88.796875 Z M 51.140625 -88.796875 "/></g></g></g><g fill="#000000" fill-opacity="1"><g transform="translate(1177.383305, 344.250003)"><g><path d="M 54.765625 -88.796875 C 70.660156 -88.796875 82.800781 -85.066406 91.1875 -77.609375 C 99.570312 -70.160156 103.765625 -58.765625 103.765625 -43.421875 L 103.765625 -37.828125 L 38.640625 -37.828125 C 38.640625 -31.578125 40.035156 -26.859375 42.828125 -23.671875 C 45.628906 -20.492188 50.046875 -18.90625 56.078125 -18.90625 C 61.554688 -18.90625 65.582031 -20.054688 68.15625 -22.359375 C 70.738281 -24.660156 72.03125 -27.734375 72.03125 -31.578125 L 103.765625 -31.578125 C 103.765625 -21.046875 99.765625 -12.820312 91.765625 -6.90625 C 83.765625 -0.988281 72.085938 1.96875 56.734375 1.96875 C 40.617188 1.96875 28.117188 -1.785156 19.234375 -9.296875 C 10.359375 -16.804688 5.921875 -28.179688 5.921875 -43.421875 C 5.921875 -58.328125 10.25 -69.613281 18.90625 -77.28125 C 27.570312 -84.957031 39.523438 -88.796875 54.765625 -88.796875 Z M 56.078125 -67.921875 C 45.773438 -67.921875 40.019531 -63.039062 38.8125 -53.28125 L 70.71875 -53.28125 C 70.71875 -57.78125 69.425781 -61.34375 66.84375 -63.96875 C 64.269531 -66.601562 60.679688 -67.921875 56.078125 -67.921875 Z M 56.078125 -67.921875 "/></g></g></g><g fill="#000000" fill-opacity="1"><g transform="translate(1287.070982, 344.250003)"><g><path d="M 11.015625 0 L 11.015625 -119.234375 L 43.75 -119.234375 L 43.75 0 Z M 11.015625 0 "/></g></g></g><g fill="#000000" fill-opacity="1"><g transform="translate(1341.843689, 344.250003)"><g/></g></g><g fill="#38b6ff" fill-opacity="1"><g transform="translate(81.000002, 507.912203)"><g><path d="M 75.640625 -113.140625 C 82.660156 -113.140625 88.910156 -111.519531 94.390625 -108.28125 C 99.878906 -105.050781 104.15625 -100.613281 107.21875 -94.96875 C 110.289062 -89.320312 111.828125 -82.992188 111.828125 -75.984375 L 111.828125 -73.84375 C 111.828125 -66.820312 110.289062 -60.460938 107.21875 -54.765625 C 104.15625 -49.066406 99.878906 -44.597656 94.390625 -41.359375 C 88.910156 -38.128906 82.660156 -36.515625 75.640625 -36.515625 L 48.515625 -36.515625 L 48.515625 0 L 12.171875 0 L 12.171875 -113.140625 Z M 48.515625 -62.984375 L 63.484375 -62.984375 C 67.316406 -62.984375 70.191406 -63.96875 72.109375 -65.9375 C 74.023438 -67.914062 74.984375 -70.601562 74.984375 -74 L 74.984375 -75.3125 C 74.984375 -78.820312 74.023438 -81.535156 72.109375 -83.453125 C 70.191406 -85.378906 67.316406 -86.34375 63.484375 -86.34375 L 48.515625 -86.34375 Z M 48.515625 -62.984375 "/></g></g></g><g fill="#38b6ff" fill-opacity="1"><g transform="translate(199.732369, 507.912203)"><g><path d="M 72.859375 0 L 70.71875 -13.15625 C 67.3125 -8.4375 62.835938 -4.734375 57.296875 -2.046875 C 51.765625 0.628906 45.929688 1.96875 39.796875 1.96875 C 29.710938 1.96875 22.144531 -0.820312 17.09375 -6.40625 C 12.050781 -12 9.53125 -20.0625 9.53125 -30.59375 L 9.53125 -86.828125 L 42.265625 -86.828125 L 42.265625 -34.53125 C 42.265625 -30.800781 43.222656 -27.8125 45.140625 -25.5625 C 47.054688 -23.320312 49.769531 -22.203125 53.28125 -22.203125 C 57.34375 -22.203125 60.632812 -23.515625 63.15625 -26.140625 C 65.675781 -28.773438 66.9375 -32.007812 66.9375 -35.84375 L 66.9375 -86.828125 L 99.65625 -86.828125 L 99.65625 0 Z M 72.859375 0 "/></g></g></g><g fill="#38b6ff" fill-opacity="1"><g transform="translate(309.420035, 507.912203)"><g><path d="M 62.65625 -88.96875 C 65.175781 -88.96875 67.421875 -88.664062 69.390625 -88.0625 C 71.367188 -87.457031 72.359375 -87.101562 72.359375 -87 L 72.359375 -59.53125 L 61.828125 -59.53125 C 55.035156 -59.53125 50.128906 -57.773438 47.109375 -54.265625 C 44.097656 -50.753906 42.59375 -45.546875 42.59375 -38.640625 L 42.59375 0 L 9.859375 0 L 9.859375 -86.828125 L 36.671875 -86.828125 L 38.8125 -73.671875 C 40.78125 -78.710938 43.898438 -82.519531 48.171875 -85.09375 C 52.453125 -87.675781 57.28125 -88.96875 62.65625 -88.96875 Z M 62.65625 -88.96875 "/></g></g></g><g fill="#38b6ff" fill-opacity="1"><g transform="translate(382.435511, 507.912203)"><g><path d="M 91.4375 0 L 77.953125 -48.34375 L 77.296875 -48.34375 L 63.640625 0 L 31.734375 0 L 0 -86.828125 L 35.1875 -86.828125 L 48.34375 -35.515625 L 49.5 -35.515625 L 63.15625 -86.828125 L 95.71875 -86.828125 L 108.875 -35.515625 L 110.015625 -35.515625 L 123.34375 -86.828125 L 155.25 -86.828125 L 123.34375 0 Z M 91.4375 0 "/></g></g></g><g fill="#38b6ff" fill-opacity="1"><g transform="translate(537.675641, 507.912203)"><g><path d="M 54.765625 -88.796875 C 70.003906 -88.796875 81.976562 -84.929688 90.6875 -77.203125 C 99.40625 -69.472656 103.765625 -58.210938 103.765625 -43.421875 C 103.765625 -28.617188 99.40625 -17.351562 90.6875 -9.625 C 81.976562 -1.894531 70.003906 1.96875 54.765625 1.96875 C 39.523438 1.96875 27.570312 -1.863281 18.90625 -9.53125 C 10.25 -17.207031 5.921875 -28.503906 5.921875 -43.421875 C 5.921875 -58.328125 10.25 -69.613281 18.90625 -77.28125 C 27.570312 -84.957031 39.523438 -88.796875 54.765625 -88.796875 Z M 54.765625 -66.609375 C 44.015625 -66.609375 38.640625 -60.410156 38.640625 -48.015625 L 38.640625 -38.640625 C 38.640625 -26.367188 44.015625 -20.234375 54.765625 -20.234375 C 65.617188 -20.234375 71.046875 -26.367188 71.046875 -38.640625 L 71.046875 -48.015625 C 71.046875 -60.410156 65.617188 -66.609375 54.765625 -66.609375 Z M 54.765625 -66.609375 "/></g></g></g><g fill="#38b6ff" fill-opacity="1"><g transform="translate(647.363318, 507.912203)"><g><path d="M 70.390625 -86.828125 L 108.53125 -86.828125 L 76.46875 -51.796875 L 109.359375 0 L 72.1875 0 L 53.9375 -29.765625 L 42.59375 -18.75 L 42.59375 0 L 9.859375 0 L 9.859375 -119.390625 L 42.59375 -119.390625 L 42.59375 -53.609375 Z M 70.390625 -86.828125 "/></g></g></g><g fill="#38b6ff" fill-opacity="1"><g transform="translate(757.050996, 507.912203)"><g><path d="M 54.765625 -88.796875 C 70.660156 -88.796875 82.800781 -85.066406 91.1875 -77.609375 C 99.570312 -70.160156 103.765625 -58.765625 103.765625 -43.421875 L 103.765625 -37.828125 L 38.640625 -37.828125 C 38.640625 -31.578125 40.035156 -26.859375 42.828125 -23.671875 C 45.628906 -20.492188 50.046875 -18.90625 56.078125 -18.90625 C 61.554688 -18.90625 65.582031 -20.054688 68.15625 -22.359375 C 70.738281 -24.660156 72.03125 -27.734375 72.03125 -31.578125 L 103.765625 -31.578125 C 103.765625 -21.046875 99.765625 -12.820312 91.765625 -6.90625 C 83.765625 -0.988281 72.085938 1.96875 56.734375 1.96875 C 40.617188 1.96875 28.117188 -1.785156 19.234375 -9.296875 C 10.359375 -16.804688 5.921875 -28.179688 5.921875 -43.421875 C 5.921875 -58.328125 10.25 -69.613281 18.90625 -77.28125 C 27.570312 -84.957031 39.523438 -88.796875 54.765625 -88.796875 Z M 56.078125 -67.921875 C 45.773438 -67.921875 40.019531 -63.039062 38.8125 -53.28125 L 70.71875 -53.28125 C 70.71875 -57.78125 69.425781 -61.34375 66.84375 -63.96875 C 64.269531 -66.601562 60.679688 -67.921875 56.078125 -67.921875 Z M 56.078125 -67.921875 "/></g></g></g><g fill="#38b6ff" fill-opacity="1"><g transform="translate(866.738673, 507.912203)"><g><path d="M 62.65625 -88.96875 C 65.175781 -88.96875 67.421875 -88.664062 69.390625 -88.0625 C 71.367188 -87.457031 72.359375 -87.101562 72.359375 -87 L 72.359375 -59.53125 L 61.828125 -59.53125 C 55.035156 -59.53125 50.128906 -57.773438 47.109375 -54.265625 C 44.097656 -50.753906 42.59375 -45.546875 42.59375 -38.640625 L 42.59375 0 L 9.859375 0 L 9.859375 -86.828125 L 36.671875 -86.828125 L 38.8125 -73.671875 C 40.78125 -78.710938 43.898438 -82.519531 48.171875 -85.09375 C 52.453125 -87.675781 57.28125 -88.96875 62.65625 -88.96875 Z M 62.65625 -88.96875 "/></g></g></g><g fill="#38b6ff" fill-opacity="1"><g transform="translate(939.754172, 507.912203)"><g><path d="M 67.75 -86.828125 L 67.75 -64.625 L 49.328125 -64.625 L 49.328125 -31.578125 C 49.328125 -27.628906 49.984375 -24.75 51.296875 -22.9375 C 52.617188 -21.132812 55.035156 -20.234375 58.546875 -20.234375 L 67.75 -20.234375 L 67.75 -0.984375 C 65.125 -0.109375 61.726562 0.597656 57.5625 1.140625 C 53.394531 1.691406 49.773438 1.96875 46.703125 1.96875 C 37.054688 1.96875 29.628906 0.21875 24.421875 -3.28125 C 19.210938 -6.789062 16.609375 -12.769531 16.609375 -21.21875 L 16.609375 -64.625 L 4.4375 -64.625 L 4.4375 -86.828125 L 17.921875 -86.828125 L 25 -113.140625 L 49.328125 -113.140625 L 49.328125 -86.828125 Z M 67.75 -86.828125 "/></g></g></g><g fill="#38b6ff" fill-opacity="1"><g transform="translate(1012.769672, 507.912203)"><g><path d="M 54.765625 -88.796875 C 70.003906 -88.796875 81.976562 -84.929688 90.6875 -77.203125 C 99.40625 -69.472656 103.765625 -58.210938 103.765625 -43.421875 C 103.765625 -28.617188 99.40625 -17.351562 90.6875 -9.625 C 81.976562 -1.894531 70.003906 1.96875 54.765625 1.96875 C 39.523438 1.96875 27.570312 -1.863281 18.90625 -9.53125 C 10.25 -17.207031 5.921875 -28.503906 5.921875 -43.421875 C 5.921875 -58.328125 10.25 -69.613281 18.90625 -77.28125 C 27.570312 -84.957031 39.523438 -88.796875 54.765625 -88.796875 Z M 54.765625 -66.609375 C 44.015625 -66.609375 38.640625 -60.410156 38.640625 -48.015625 L 38.640625 -38.640625 C 38.640625 -26.367188 44.015625 -20.234375 54.765625 -20.234375 C 65.617188 -20.234375 71.046875 -26.367188 71.046875 -38.640625 L 71.046875 -48.015625 C 71.046875 -60.410156 65.617188 -66.609375 54.765625 -66.609375 Z M 54.765625 -66.609375 "/></g></g></g></svg>